<?xml version="1.0" standalone="no"?>
<!DOCTYPE svg PUBLIC "-//W3C//DTD SVG 20010904//EN"
 "http://www.w3.org/TR/2001/REC-SVG-20010904/DTD/svg10.dtd">
<svg version="1.0" xmlns="http://www.w3.org/2000/svg"
 width="64.000000pt" height="64.000000pt" viewBox="0 0 64.000000 64.000000"
 preserveAspectRatio="xMidYMid meet">
<metadata>
Created by potrace 1.16, written by Peter Selinger 2001-2019
</metadata>
<g transform="translate(0.000000,64.000000) scale(0.100000,-0.100000)"
fill="#000000" stroke="none">
<path d="M230 621 c-142 -46 -222 -151 -228 -298 -4 -72 -1 -89 23 -140 32
-72 81 -123 145 -153 61 -28 80 -22 80 26 0 32 -3 36 -21 31 -34 -9 -72 11
-101 53 -33 47 -24 52 17 10 40 -42 88 -42 110 0 14 28 14 30 -2 30 -9 0 -36
9 -59 20 -64 31 -93 120 -59 180 8 14 14 44 15 68 0 46 12 52 53 30 32 -17
195 -17 230 0 39 18 57 9 57 -30 0 -18 7 -51 16 -75 22 -57 12 -107 -30 -149
-19 -19 -48 -35 -69 -39 -32 -6 -35 -10 -27 -25 6 -10 10 -46 10 -80 0 -73 13
-82 75 -52 65 32 111 77 145 144 25 51 30 73 30 133 0 93 -21 153 -77 215 -66
74 -129 103 -228 106 -44 2 -91 0 -105 -5z"/>
</g>
</svg>
